<?xml version="1.0" encoding="UTF-8"?>
<!DOCTYPE svg PUBLIC "-//W3C//DTD SVG 1.1//EN" "http://www.w3.org/Graphics/SVG/1.1/DTD/svg11.dtd">
<!-- Creator: CorelDRAW 2019 (64-Bit) -->
<svg xmlns="http://www.w3.org/2000/svg" xml:space="preserve" width="13.2273in" height="4.17703in" version="1.1" style="shape-rendering:geometricPrecision; text-rendering:geometricPrecision; image-rendering:optimizeQuality; fill-rule:evenodd; clip-rule:evenodd"
viewBox="0 0 4578.67 1445.89"
 xmlns:xlink="http://www.w3.org/1999/xlink">
 <defs>
  <style type="text/css">
   <![CDATA[
    .fil1 {fill:#333333}
    .fil0 {fill:white}
    .fil2 {fill:black;fill-rule:nonzero}
   ]]>
  </style>
 </defs>
 <g id="Capa_x0020_1">
  <metadata id="CorelCorpID_0Corel-Layer"/>
  <polygon class="fil0" points="-0,0 4578.67,0 4578.67,1445.89 -0,1445.89 "/>
 </g>
 <g id="Capa_x0020_1_0">
  <metadata id="CorelCorpID_1Corel-Layer"/>
  <path class="fil1" d="M369.25 424l648.04 0c60.78,0 110.48,49.51 110.48,110.03l0 377.84c0,60.52 -49.73,110.03 -110.48,110.03l-648.04 0c-60.78,0 -110.48,-49.51 -110.48,-110.03l0 -377.84c0,-60.52 49.73,-110.03 110.48,-110.03zm185.26 135.49c0.19,3.25 0.93,5.94 2.31,7.95 2.58,3.81 7.13,5.71 13.67,5.71 2.91,0 5.6,-0.41 7.99,-1.27 4.67,-1.61 6.98,-4.52 6.98,-8.7 0,-3.14 -0.97,-5.38 -2.91,-6.72 -1.98,-1.31 -5.11,-2.46 -9.33,-3.4l-7.8 -1.75c-5.11,-1.16 -8.7,-2.43 -10.83,-3.81 -3.66,-2.43 -5.49,-6.01 -5.49,-10.79 0,-5.19 1.79,-9.41 5.38,-12.73 3.58,-3.32 8.62,-4.96 15.2,-4.96 6.05,0 11.16,1.46 15.38,4.37 4.22,2.91 6.31,7.58 6.31,13.96l-7.32 0c-0.37,-3.1 -1.23,-5.45 -2.5,-7.1 -2.35,-3.02 -6.42,-4.52 -12.1,-4.52 -4.59,0 -7.91,0.97 -9.93,2.91 -2.02,1.94 -3.02,4.18 -3.02,6.72 0,2.84 1.19,4.89 3.55,6.2 1.53,0.86 5.04,1.9 10.46,3.14l8.06 1.83c3.88,0.9 6.91,2.13 9.04,3.66 3.66,2.69 5.49,6.61 5.49,11.72 0,6.38 -2.32,10.94 -6.94,13.67 -4.63,2.76 -10.04,4.11 -16.17,4.11 -7.17,0 -12.77,-1.83 -16.8,-5.49 -4.03,-3.66 -6.05,-8.55 -5.94,-14.79l7.32 0 -0.04 0.07zm52.91 7.43c0,2.02 0.75,3.62 2.24,4.82 1.49,1.2 3.25,1.76 5.3,1.76 2.46,0 4.89,-0.56 7.21,-1.72 3.92,-1.9 5.86,-5.04 5.86,-9.37l0 -5.67c-0.86,0.56 -1.98,1.01 -3.32,1.38 -1.34,0.37 -2.69,0.63 -3.99,0.78l-4.26 0.56c-2.58,0.34 -4.48,0.9 -5.75,1.61 -2.17,1.23 -3.25,3.17 -3.25,5.86l-0.04 0zm17.1 -14.26c1.61,-0.22 2.73,-0.9 3.25,-2.05 0.3,-0.64 0.49,-1.53 0.49,-2.69 0,-2.39 -0.86,-4.14 -2.58,-5.23 -1.72,-1.08 -4.14,-1.64 -7.36,-1.64 -3.7,0 -6.27,1.01 -7.84,2.99 -0.86,1.08 -1.42,2.73 -1.68,4.89l-6.61 0c0.15,-5.15 1.83,-8.78 5.04,-10.79 3.21,-2.02 6.98,-3.02 11.24,-3.02 4.93,0 8.96,0.93 12.02,2.84 3.06,1.9 4.59,4.82 4.59,8.78l0 24.19c0,0.75 0.15,1.31 0.45,1.75 0.3,0.45 0.93,0.67 1.9,0.67 0.34,0 0.67,-0.04 1.05,-0.07 0.41,-0.04 0.82,-0.11 1.27,-0.19l0 5.23c-1.08,0.3 -1.94,0.52 -2.5,0.6 -0.56,0.07 -1.34,0.11 -2.35,0.11 -2.43,0 -4.22,-0.86 -5.3,-2.58 -0.56,-0.9 -0.97,-2.2 -1.23,-3.88 -1.42,1.9 -3.51,3.51 -6.2,4.89 -2.69,1.38 -5.67,2.09 -8.93,2.09 -3.88,0 -7.06,-1.2 -9.52,-3.55 -2.46,-2.35 -3.7,-5.34 -3.7,-8.89 0,-3.88 1.23,-6.91 3.66,-9.07 2.43,-2.13 5.6,-3.47 9.56,-3.96l11.24 -1.42 0.04 -0.01zm21.58 -32.37l6.87 0 0 20.87c1.57,-2.02 3.4,-3.55 5.52,-4.59 2.17,-1.05 4.48,-1.61 6.98,-1.61 5.23,0 9.44,1.79 12.73,5.38 3.25,3.58 4.85,8.89 4.85,15.91 0,6.65 -1.61,12.14 -4.82,16.54 -3.21,4.41 -7.65,6.61 -13.37,6.61 -3.17,0 -5.86,-0.78 -8.06,-2.31 -1.31,-0.93 -2.73,-2.39 -4.22,-4.41l0 5.38 -6.5 0 0 -57.76 0 -0zm18.33 52.87c3.81,0 6.65,-1.49 8.55,-4.55 1.9,-3.02 2.84,-7.02 2.84,-11.99 0,-4.41 -0.93,-8.06 -2.84,-10.98 -1.9,-2.91 -4.67,-4.37 -8.36,-4.37 -3.21,0 -6.01,1.2 -8.44,3.58 -2.43,2.35 -3.62,6.27 -3.62,11.76 0,3.96 0.49,7.17 1.49,9.59 1.87,4.63 5.34,6.94 10.38,6.94l0 0.01zm43.53 0.37c4.67,0 7.88,-1.76 9.63,-5.3 1.75,-3.55 2.61,-7.47 2.61,-11.8 0,-3.92 -0.63,-7.09 -1.9,-9.56 -1.98,-3.88 -5.42,-5.82 -10.27,-5.82 -4.33,0 -7.47,1.64 -9.41,4.97 -1.98,3.28 -2.95,7.28 -2.95,11.91 0,4.48 0.97,8.22 2.95,11.16 1.94,2.99 5.08,4.48 9.34,4.48l0 -0.04zm0.26 -38.64c5.42,0 9.97,1.79 13.74,5.42 3.73,3.58 5.6,8.92 5.6,15.91 0,6.76 -1.64,12.36 -4.93,16.76 -3.32,4.41 -8.4,6.61 -15.35,6.61 -5.79,0 -10.34,-1.94 -13.74,-5.86 -3.4,-3.92 -5.11,-9.15 -5.11,-15.72 0,-7.06 1.79,-12.66 5.38,-16.84 3.58,-4.18 8.4,-6.27 14.41,-6.27l0 -0zm27.93 1.2l6.72 0 0 7.24c0.56,-1.42 1.9,-3.14 4.03,-5.15 2.13,-2.02 4.63,-3.02 7.43,-3.02 0.15,0 0.34,0 0.67,0.04 0.3,0.04 0.86,0.07 1.61,0.15l0 7.43c-0.41,-0.07 -0.78,-0.15 -1.16,-0.15 -0.34,-0.04 -0.75,-0.04 -1.16,-0.04 -3.55,0 -6.27,1.12 -8.18,3.44 -1.9,2.28 -2.88,4.93 -2.88,7.88l0 24.16 -7.06 0 0 -41.96 -0.04 0zm44.02 -0.94c2.99,0 5.86,0.71 8.66,2.09 2.8,1.38 4.93,3.21 6.38,5.41 1.42,2.13 2.35,4.59 2.84,7.43 0.41,1.94 0.64,5 0.64,9.26l-30.76 0c0.15,4.26 1.12,7.66 3.02,10.23 1.9,2.58 4.78,3.85 8.74,3.85 3.7,0 6.61,-1.23 8.85,-3.66 1.23,-1.42 2.13,-3.06 2.65,-4.89l6.94 0c-0.19,1.53 -0.78,3.25 -1.83,5.15 -1.05,1.9 -2.21,3.43 -3.47,4.63 -2.13,2.09 -4.82,3.51 -7.95,4.22 -1.72,0.45 -3.62,0.63 -5.75,0.63 -5.23,0 -9.63,-1.9 -13.29,-5.71 -3.62,-3.81 -5.45,-9.11 -5.45,-15.98 0,-6.76 1.83,-12.21 5.49,-16.43 3.66,-4.22 8.44,-6.31 14.34,-6.31l-0.04 0.07zm11.24 18.6c-0.3,-3.06 -0.93,-5.52 -1.98,-7.32 -1.94,-3.4 -5.15,-5.11 -9.67,-5.11 -3.25,0 -5.94,1.16 -8.14,3.51 -2.2,2.35 -3.36,5.3 -3.51,8.92l23.34 0 -0.04 0zm20.12 11.16c0.22,2.35 0.78,4.14 1.76,5.42 1.79,2.28 4.85,3.4 9.26,3.4 2.61,0 4.93,-0.56 6.91,-1.72 1.98,-1.12 2.99,-2.87 2.99,-5.26 0,-1.79 -0.78,-3.17 -2.39,-4.11 -1.01,-0.56 -3.02,-1.23 -6.05,-2.02l-5.6 -1.42c-3.58,-0.9 -6.23,-1.9 -7.91,-2.99 -3.02,-1.9 -4.55,-4.55 -4.55,-7.91 0,-3.96 1.42,-7.17 4.29,-9.63 2.87,-2.46 6.72,-3.7 11.54,-3.7 6.31,0 10.87,1.87 13.67,5.56 1.75,2.35 2.61,4.89 2.54,7.62l-6.65 0c-0.15,-1.61 -0.71,-3.06 -1.68,-4.37 -1.61,-1.83 -4.44,-2.8 -8.44,-2.8 -2.65,0 -4.67,0.52 -6.05,1.53 -1.38,1.01 -2.05,2.35 -2.05,4.03 0,1.83 0.9,3.32 2.73,4.41 1.05,0.63 2.58,1.23 4.63,1.72l4.67 1.12c5.08,1.23 8.48,2.43 10.19,3.58 2.76,1.79 4.11,4.63 4.11,8.51 0,3.73 -1.42,6.94 -4.26,9.67 -2.84,2.72 -7.13,4.07 -12.95,4.07 -6.23,0 -10.68,-1.42 -13.29,-4.26 -2.61,-2.84 -3.99,-6.35 -4.18,-10.53l6.79 0 -0 0.07zm54.88 255.23c-19.79,34.24 -99.84,-16.02 -123.69,-29.8 -22.72,-13.11 -42.89,-26.6 -58.47,-38.71l-148.66 74.04c-9.61,4.79 -19.8,3.85 -22.76,-2.09l-2.01 -4.04c-2.96,-5.94 2.44,-14.64 12.05,-19.43l138.29 -68.88c-6.41,-6.83 -9.95,-12.45 -9.88,-16.25l-126.83 -73.22c-5.71,-3.32 -7.69,-10.68 -4.41,-16.43l2.24 -3.88c3.32,-5.71 10.68,-7.69 16.43,-4.4l162.89 94.04 32.15 -16.01c-4.52,-23.05 6.64,-47.16 28.68,-58.16 23.86,-11.87 61.19,-27.07 87.48,-16.09l-75.79 37.75 4.37 8.74 81.39 -40.55c3.58,2.91 6.87,6.61 9.67,11.12l-75.29 37.5c0.67,0.63 1.21,1.35 1.62,2.18l0 0 2.01 4.04c0.4,0.79 0.64,1.64 0.75,2.52l75.28 -37.49 -0.04 0.08c1.94,4.96 2.91,9.78 3.06,14.41l-81.39 40.55 4.37 8.74 75.79 -37.75c-7.06,27.59 -41.67,48.24 -65.56,60.11 -22.03,10.96 -47.97,5.34 -63.67,-12.13l-15.22 7.58 130.75 75.48c5.71,3.32 7.69,10.68 4.4,16.43l0 0zm-320.01 47.57l42 0 0 7.06 -34.39 0 0 17.47 31.77 0 0 6.65 -31.77 0 0 19.53 34.95 0 0 6.87 -42.56 0 0 -57.57zm47.87 15.57l9.15 0 9.63 14.78 9.78 -14.78 8.55 0.22 -14.11 20.27 14.75 21.51 -9 0 -10.45 -15.76 -10.08 15.76 -8.96 0 14.79 -21.51 -14.04 -20.5zm60.82 37.45c4.67,0 7.88,-1.75 9.63,-5.3 1.75,-3.55 2.61,-7.47 2.61,-11.8 0,-3.92 -0.64,-7.09 -1.9,-9.56 -1.98,-3.88 -5.41,-5.82 -10.27,-5.82 -4.33,0 -7.47,1.64 -9.41,4.97 -1.98,3.29 -2.95,7.28 -2.95,11.91 0,4.48 0.97,8.22 2.95,11.16 1.94,2.99 5.08,4.48 9.34,4.48l0 -0.04zm0.26 -38.64c5.41,0 9.97,1.79 13.74,5.42 3.73,3.58 5.6,8.92 5.6,15.91 0,6.76 -1.64,12.36 -4.93,16.76 -3.32,4.41 -8.4,6.61 -15.35,6.61 -5.79,0 -10.34,-1.94 -13.74,-5.86 -3.4,-3.92 -5.11,-9.15 -5.11,-15.72 0,-7.06 1.79,-12.66 5.38,-16.84 3.58,-4.18 8.4,-6.27 14.41,-6.27l0 -0zm8.22 -15.68l-10.49 11.31 -5.42 0 7.17 -11.31 8.7 0 0.04 0zm20.91 5.19l7.13 0 0 11.72 6.72 0 0 5.75 -6.72 0 0 27.4c0,1.46 0.52,2.43 1.49,2.91 0.56,0.3 1.46,0.45 2.73,0.45 0.34,0 0.71,0 1.08,-0.04 0.37,0 0.86,-0.04 1.38,-0.11l0 5.56c-0.78,0.22 -1.64,0.41 -2.54,0.52 -0.86,0.11 -1.83,0.15 -2.84,0.15 -3.29,0 -5.52,-0.86 -6.72,-2.54 -1.19,-1.68 -1.75,-3.88 -1.75,-6.57l0 -27.78 -5.67 0 0 -5.75 5.67 0 0 -11.72 0.04 0.04zm20.91 11.91l7.17 0 0 41.78 -7.17 0 0 -41.78zm0 -15.79l7.17 0 0 7.99 -7.17 0 0 -7.99zm34.01 14.37c4.7,0 8.59,1.16 11.54,3.47 2.95,2.31 4.74,6.27 5.34,11.87l-6.83 0c-0.41,-2.58 -1.38,-4.74 -2.87,-6.46 -1.49,-1.72 -3.89,-2.58 -7.17,-2.58 -4.48,0 -7.69,2.2 -9.63,6.57 -1.27,2.84 -1.9,6.38 -1.9,10.53 0,4.22 0.9,7.77 2.69,10.64 1.75,2.87 4.55,4.33 8.4,4.33 2.91,0 5.26,-0.9 6.94,-2.69 1.72,-1.79 2.87,-4.26 3.55,-7.35l6.83 0c-0.78,5.56 -2.73,9.63 -5.86,12.21 -3.14,2.58 -7.13,3.88 -12.02,3.88 -5.49,0 -9.86,-2.02 -13.14,-6.01 -3.25,-3.99 -4.89,-9.03 -4.89,-15.01 0,-7.36 1.79,-13.11 5.38,-17.21 3.58,-4.11 8.14,-6.16 13.7,-6.16l-0.03 -0.04zm40.62 38.64c4.67,0 7.88,-1.75 9.63,-5.3 1.76,-3.55 2.61,-7.47 2.61,-11.8 0,-3.92 -0.63,-7.09 -1.9,-9.56 -1.98,-3.88 -5.42,-5.82 -10.27,-5.82 -4.33,0 -7.47,1.64 -9.41,4.97 -1.98,3.29 -2.95,7.28 -2.95,11.91 0,4.48 0.97,8.22 2.95,11.16 1.94,2.99 5.08,4.48 9.34,4.48l0 -0.04zm0.26 -38.64c5.42,0 9.97,1.79 13.74,5.42 3.73,3.58 5.6,8.92 5.6,15.91 0,6.76 -1.64,12.36 -4.93,16.76 -3.33,4.41 -8.4,6.61 -15.35,6.61 -5.79,0 -10.34,-1.94 -13.74,-5.86 -3.4,-3.92 -5.11,-9.15 -5.11,-15.72 0,-7.06 1.79,-12.66 5.38,-16.84 3.58,-4.18 8.4,-6.27 14.41,-6.27l0 -0zm31.88 30.02c0.22,2.35 0.78,4.14 1.75,5.42 1.79,2.28 4.85,3.4 9.26,3.4 2.61,0 4.93,-0.56 6.91,-1.72 1.98,-1.12 2.99,-2.88 2.99,-5.26 0,-1.79 -0.78,-3.17 -2.39,-4.11 -1.01,-0.56 -3.02,-1.23 -6.05,-2.02l-5.6 -1.42c-3.58,-0.9 -6.23,-1.9 -7.91,-2.99 -3.02,-1.9 -4.55,-4.55 -4.55,-7.91 0,-3.96 1.42,-7.17 4.29,-9.63 2.87,-2.46 6.72,-3.7 11.54,-3.7 6.31,0 10.87,1.87 13.67,5.56 1.76,2.35 2.61,4.89 2.54,7.62l-6.65 0c-0.15,-1.61 -0.71,-3.06 -1.68,-4.37 -1.61,-1.83 -4.44,-2.8 -8.44,-2.8 -2.65,0 -4.67,0.52 -6.05,1.53 -1.38,1.01 -2.05,2.35 -2.05,4.03 0,1.83 0.9,3.33 2.73,4.41 1.05,0.64 2.58,1.23 4.63,1.72l4.67 1.12c5.08,1.23 8.47,2.43 10.19,3.58 2.77,1.79 4.11,4.63 4.11,8.51 0,3.73 -1.42,6.94 -4.26,9.67 -2.84,2.73 -7.13,4.07 -12.95,4.07 -6.23,0 -10.68,-1.42 -13.29,-4.26 -2.61,-2.84 -3.99,-6.35 -4.18,-10.53l6.79 0 -0 0.07z"/>
  <path class="fil2" d="M2247.52 633.24l26.87 0c10.29,0 17.67,1.98 22.15,5.96 3.71,3.35 5.58,8.17 5.58,14.48 0,5.38 -1.96,9.77 -5.87,13.19 -3.31,2.92 -7.69,4.79 -13.19,5.58l0 0.61c7.36,0.9 12.94,3.4 16.75,7.5 3.29,3.56 4.94,8.02 4.94,13.35 0,7.92 -2.89,13.96 -8.67,18.1 -5,3.56 -11.67,5.35 -20.06,5.35l-28.5 0 0 -84.12zm7.48 6.35l0 30.12 16.4 0c7.85,0 13.79,-1.6 17.81,-4.79 3.39,-2.71 5.06,-6.31 5.06,-10.77 0,-5.42 -1.71,-9.23 -5.17,-11.46 -3.27,-2.06 -8.5,-3.1 -15.71,-3.1l-18.38 0zm0 36.46l0 34.96 19.96 0c14.56,0 21.85,-5.77 21.85,-17.31 0,-5.75 -2.4,-10.21 -7.21,-13.37 -4.38,-2.86 -10.31,-4.29 -17.75,-4.29l-16.85 0z"/>
  <path id="1" class="fil2" d="M2325.89 633.24l26.87 0c10.29,0 17.67,1.98 22.15,5.96 3.71,3.35 5.58,8.17 5.58,14.48 0,5.38 -1.96,9.77 -5.87,13.19 -3.31,2.92 -7.69,4.79 -13.19,5.58l0 0.61c7.36,0.9 12.94,3.4 16.75,7.5 3.29,3.56 4.94,8.02 4.94,13.35 0,7.92 -2.89,13.96 -8.67,18.1 -5,3.56 -11.67,5.35 -20.06,5.35l-28.5 0 0 -84.12zm7.48 6.35l0 30.12 16.4 0c7.85,0 13.79,-1.6 17.81,-4.79 3.39,-2.71 5.06,-6.31 5.06,-10.77 0,-5.42 -1.71,-9.23 -5.17,-11.46 -3.27,-2.06 -8.5,-3.1 -15.71,-3.1l-18.38 0zm0 36.46l0 34.96 19.96 0c14.56,0 21.85,-5.77 21.85,-17.31 0,-5.75 -2.4,-10.21 -7.21,-13.37 -4.38,-2.86 -10.31,-4.29 -17.75,-4.29l-16.85 0z"/>
  <path id="2" class="fil2" d="M2463.47 729.03l-0.85 6.58c-3.31,0.44 -6.85,0.67 -10.6,0.67 -5.75,0 -9.87,-0.96 -12.33,-2.89 -2.08,-1.58 -3.85,-4.46 -5.31,-8.67l-2.19 -5.87c-10.37,-0.19 -18.6,-4.6 -24.67,-13.23 -5.48,-7.81 -8.23,-17.85 -8.23,-30.14 0,-14.37 3.69,-25.58 11.1,-33.62 6.15,-6.67 13.85,-10.02 23.04,-10.02 10.75,0 19.27,4.31 25.58,12.9 5.71,7.77 8.58,17.92 8.58,30.46 0,12.9 -2.98,23.35 -8.9,31.31 -4.96,6.6 -11.29,10.6 -18.98,11.98l1.35 4.02c1.06,3.17 2.46,5.27 4.23,6.27 1.62,0.9 4.12,1.37 7.54,1.37 3.79,0 7.35,-0.38 10.65,-1.13zm-30.04 -90.6c-8.36,0 -14.92,3.6 -19.65,10.81 -4.29,6.54 -6.42,15.23 -6.42,26.1 0,12.5 2.75,22.12 8.29,28.85 4.62,5.64 10.54,8.44 17.79,8.44 8.42,0 15,-3.65 19.73,-10.98 4.23,-6.62 6.37,-15.38 6.37,-26.31 0,-12.48 -2.75,-22.02 -8.23,-28.61 -4.58,-5.52 -10.54,-8.29 -17.87,-8.29z"/>
  <path id="3" class="fil2" d="M2581.06 678.49c-0.71,5.87 -2.06,11.27 -4,16.21 -1.77,4.56 -3.87,8.13 -6.27,10.77 2.86,3.12 5.54,5.17 8.06,6.15 2.12,0.83 4.94,1.25 8.52,1.25l-1.81 5.75 -1.64 0c-4.21,0 -7.67,-0.73 -10.42,-2.21 -2.29,-1.19 -4.73,-3.27 -7.33,-6.21 -6.35,5.77 -14.15,8.65 -23.44,8.65 -8.21,0 -14.81,-2.56 -19.77,-7.65 -4.29,-4.44 -6.42,-9.88 -6.42,-16.33 0,-6.31 1.73,-11.6 5.19,-15.83 2.96,-3.62 7.46,-6.81 13.52,-9.58 -4.33,-6.69 -6.48,-12.81 -6.48,-18.37 0,-5.4 1.98,-9.87 5.96,-13.37 3.42,-3 7.56,-4.5 12.4,-4.5 5.67,0 10.13,1.71 13.4,5.14 2.83,3 4.23,6.83 4.23,11.48 0,5.29 -1.83,9.67 -5.46,13.12 -3.35,3.12 -8.54,5.87 -15.56,8.23 7.4,11.38 15.14,21.61 23.21,30.69 3.87,-5.52 6.37,-13.87 7.5,-25.04l6.6 1.64zm-43.17 -5.1c-5.69,2.89 -9.63,6.12 -11.77,9.69 -1.85,3.04 -2.75,6.88 -2.75,11.54 0,5.67 2.14,10.31 6.42,13.9 3.75,3.19 8.29,4.79 13.63,4.79 7.77,0 14.15,-2.27 19.15,-6.81 -9.06,-10.19 -17.29,-21.23 -24.69,-33.12zm3.33 -6.35c6.85,-2.52 11.46,-5.21 13.87,-8.12 2,-2.44 2.98,-5.62 2.98,-9.52 0,-3.33 -1.12,-6.02 -3.37,-8.04 -2.04,-1.81 -4.56,-2.71 -7.56,-2.71 -3.58,0 -6.5,1.29 -8.79,3.89 -2,2.25 -2.98,5 -2.98,8.23 0,2.85 0.48,5.56 1.46,8.1 0.87,2.19 2.33,4.9 4.39,8.17z"/>
  <path id="4" class="fil2" d="M2637.5 633.24l27.1 0c10.1,0 17.58,2.27 22.42,6.81 4.13,3.87 6.19,9.25 6.19,16.15 0,7.81 -2.83,13.81 -8.5,17.96 -5.11,3.71 -12.04,5.58 -20.79,5.58l-18.83 0 0 37.61 -7.6 0 0 -84.12zm7.6 6.35l0 33.92 18.37 0c14.54,0 21.81,-5.73 21.81,-17.19 0,-11.15 -7.04,-16.73 -21.12,-16.73l-19.06 0z"/>
  <path id="5" class="fil2" d="M2708.39 673.05c3.44,-9.85 11.02,-14.77 22.69,-14.77 13.63,0 20.46,6.38 20.46,19.15l0 20.33c0,7.69 0.46,14.23 1.4,19.6l-6.71 0c-0.48,-2.21 -0.9,-5.6 -1.29,-10.15 -5.08,7.69 -12.02,11.54 -20.85,11.54 -6.11,0 -10.79,-1.77 -14.02,-5.29 -2.75,-2.96 -4.12,-6.79 -4.12,-11.44 0,-10.42 6.5,-16.73 19.48,-18.9 5.08,-0.87 11.46,-1.5 19.15,-1.86l0 -3.1c0,-5.46 -1.19,-9.27 -3.6,-11.4 -2.1,-1.87 -5.44,-2.81 -10.04,-2.81 -8.25,0 -13.56,3.85 -15.88,11.54l-6.69 -2.42zm36.21 13.5c-5.77,0.12 -11.65,0.73 -17.63,1.85 -9.23,1.88 -13.85,6.31 -13.85,13.27 0,3.75 1.19,6.63 3.6,8.67 2.15,1.83 5.02,2.75 8.62,2.75 7.75,0 14.17,-4.15 19.27,-12.48l0 -14.06z"/>
  <path id="6" class="fil2" d="M2800.62 658.28l-0.56 7.15c-4.06,0 -7.83,1.75 -11.27,5.23 -3.23,3.23 -5.67,7.54 -7.33,12.9l0 33.79 -7.04 0 0 -57.69 6.81 0 0 15c2.25,-5.75 5.31,-10.04 9.13,-12.9 3.15,-2.33 6.58,-3.48 10.25,-3.48z"/>
  <path id="7" class="fil2" d="M2842.6 658.28l-0.56 7.15c-4.06,0 -7.83,1.75 -11.27,5.23 -3.23,3.23 -5.67,7.54 -7.33,12.9l0 33.79 -7.04 0 0 -57.69 6.81 0 0 15c2.25,-5.75 5.31,-10.04 9.13,-12.9 3.15,-2.33 6.58,-3.48 10.25,-3.48z"/>
  <path id="8" class="fil2" d="M2865.54 659.66l0 57.69 -7.15 0 0 -57.69 7.15 0zm1.69 -23.19l0 10.73 -10.6 0 0 -10.73 10.6 0z"/>
  <polygon id="9" class="fil2" points="2895.79,631.74 2895.79,717.36 2888.64,717.36 2888.64,631.74 "/>
  <polygon id="10" class="fil2" points="2926.04,631.74 2926.04,717.36 2918.89,717.36 2918.89,631.74 "/>
  <path id="11" class="fil2" d="M2947.51 673.05c3.44,-9.85 11.02,-14.77 22.69,-14.77 13.63,0 20.46,6.38 20.46,19.15l0 20.33c0,7.69 0.46,14.23 1.4,19.6l-6.71 0c-0.48,-2.21 -0.9,-5.6 -1.29,-10.15 -5.08,7.69 -12.02,11.54 -20.85,11.54 -6.11,0 -10.79,-1.77 -14.02,-5.29 -2.75,-2.96 -4.12,-6.79 -4.12,-11.44 0,-10.42 6.5,-16.73 19.48,-18.9 5.08,-0.87 11.46,-1.5 19.15,-1.86l0 -3.1c0,-5.46 -1.19,-9.27 -3.6,-11.4 -2.1,-1.87 -5.44,-2.81 -10.04,-2.81 -8.25,0 -13.56,3.85 -15.88,11.54l-6.69 -2.42zm36.21 13.5c-5.77,0.12 -11.65,0.73 -17.63,1.85 -9.23,1.88 -13.85,6.31 -13.85,13.27 0,3.75 1.19,6.63 3.6,8.67 2.15,1.83 5.02,2.75 8.62,2.75 7.75,0 14.17,-4.15 19.27,-12.48l0 -14.06z"/>
  <path id="12" class="fil2" d="M2140.08 359.61l-15.1 3.65c-2.23,-12.62 -8.5,-18.92 -18.83,-18.92 -7.33,0 -12.98,3.27 -16.96,9.81 -3.67,6 -5.52,14.19 -5.52,24.56 0,11.79 2.38,20.73 7.15,26.87 3.94,5.02 9.06,7.54 15.33,7.54 10.67,0 17.25,-6.38 19.73,-19.15l14.69 4.5c-4.58,17.77 -16.1,26.65 -34.54,26.65 -12.62,0 -22.44,-4.56 -29.46,-13.69 -6.27,-8.14 -9.4,-19 -9.4,-32.56 0,-15.58 4.06,-27.56 12.17,-35.92 6.86,-7.06 15.77,-10.6 26.69,-10.6 9.69,0 17.58,2.75 23.67,8.23 5.17,4.69 8.63,11.04 10.37,19.04z"/>
  <path id="13" class="fil2" d="M2151.75 376.11c3.27,-11.63 12,-17.46 26.19,-17.46 16.38,0 24.56,7 24.56,21.02l0 25.12c0,6.14 0.35,12.37 1.02,18.71l-13.35 0c-0.42,-2.36 -0.77,-5.13 -1.08,-8.31 -4.54,6.54 -11.19,9.81 -19.94,9.81 -6.27,0 -11.19,-1.92 -14.77,-5.75 -3.15,-3.39 -4.73,-7.73 -4.73,-13.08 0,-11.27 6.9,-18.25 20.67,-20.9 5.11,-0.98 11.15,-1.58 18.1,-1.81l0 -3.6c0,-4.19 -1,-7.17 -2.98,-8.94 -1.73,-1.5 -4.4,-2.23 -8,-2.23 -3.31,0 -6.06,1.06 -8.23,3.19 -2,1.96 -3.29,4.58 -3.88,7.89l-13.58 -3.66zm36.67 16.31c-4.85,0.11 -9.69,0.73 -14.54,1.86 -6.9,1.65 -10.37,5.23 -10.37,10.77 0,6.38 3.39,9.58 10.14,9.58 6.17,0 11.1,-3.48 14.77,-10.42l0 -11.79z"/>
  <path id="14" class="fil2" d="M2238.06 339.49l0 20.65 14.19 0 0 10.6 -14.19 0 0 34.75c0,6.1 2.6,9.13 7.83,9.13 2.81,0 5.27,-0.25 7.39,-0.73l-0.58 10.37c-3.19,0.48 -6.96,0.73 -11.31,0.73 -6.42,0 -11.06,-1.54 -13.87,-4.62 -2.52,-2.75 -3.77,-6.83 -3.77,-12.23l0 -37.41 -9.48 0 0 -10.6 9.48 0 0 -17.38 14.31 -3.27z"/>
  <path id="15" class="fil2" d="M2317.77 394.99l-42.83 0c0.08,6.6 1.61,11.67 4.63,15.19 2.73,3.19 6.5,4.79 11.31,4.79 6.81,0 11.27,-4.02 13.37,-12.02l13.17 3.83c-3.98,12.21 -12.87,18.33 -26.69,18.33 -10.11,0 -17.79,-3.27 -23.06,-9.81 -4.62,-5.69 -6.92,-13.4 -6.92,-23.08 0,-10.98 3,-19.5 9.02,-25.58 5.14,-5.25 11.71,-7.89 19.71,-7.89 8.94,0 16,3.25 21.19,9.75 4.73,5.9 7.1,13.73 7.1,23.5l0 2.98zm-14.19 -9.58c-0.71,-11.08 -5.34,-16.63 -13.87,-16.63 -4.61,0 -8.21,1.69 -10.77,5.08 -2.17,2.9 -3.42,6.75 -3.77,11.56l28.4 0z"/>
  <path id="16" class="fil2" d="M2387 351.37l-0.9 11.65c-3.23,0 -5.69,0.29 -7.36,0.85 -1.33,0.46 -2.63,1.25 -3.94,2.42 3.44,3.56 5.17,7.79 5.17,12.65 0,6.9 -2.63,12.25 -7.89,16.04 -4.44,3.23 -10.11,4.85 -17.02,4.85 -2.92,0 -5.67,-0.37 -8.23,-1.08 -3.08,1.54 -4.61,3.39 -4.61,5.52 0,1.52 0.63,2.58 1.92,3.23 1.27,0.64 3.56,1.1 6.87,1.4l14.31 1.17c8.5,0.83 14.44,2.79 17.87,5.87 2.71,2.52 4.06,6.04 4.06,10.54 0,6.11 -3.1,10.94 -9.29,14.48 -5.67,3.19 -13.19,4.79 -22.54,4.79 -9.62,0 -16.98,-1.6 -22.1,-4.79 -4.27,-2.71 -6.42,-6.23 -6.42,-10.6 0,-5.4 3.89,-9.52 11.67,-12.35 -5.94,-1.31 -8.9,-4.35 -8.9,-9.12 0,-4.69 3.23,-9.08 9.69,-13.13 -6.02,-3.83 -9.02,-9.38 -9.02,-16.71 0,-6.52 2.63,-11.65 7.89,-15.41 4.48,-3.27 10.11,-4.9 16.96,-4.9 5.21,0 9.71,1.02 13.46,3.04 2.21,-4.02 4.85,-6.79 7.89,-8.35 2.67,-1.38 6.17,-2.08 10.48,-2.08zm-31.89 15.94c-3.58,0 -6.44,1.17 -8.61,3.5 -1.92,2.1 -2.89,4.77 -2.89,8.04 0,4.23 1.23,7.44 3.67,9.65 2.02,1.85 4.63,2.77 7.83,2.77 3.67,0 6.58,-1.19 8.67,-3.56 1.92,-2.19 2.89,-5.12 2.89,-8.77 0,-3.81 -1.27,-6.81 -3.79,-8.98 -2.06,-1.77 -4.65,-2.65 -7.77,-2.65zm-7.83 52.46c-5.67,1.81 -8.52,4.67 -8.52,8.63 0,2.92 1.81,5.17 5.42,6.75 3.08,1.37 7.08,2.04 12,2.04 6.31,0 11.13,-0.94 14.48,-2.83 2.65,-1.5 4,-3.36 4,-5.58 0,-2.4 -0.87,-4.13 -2.6,-5.19 -1.73,-1 -4.75,-1.73 -9.08,-2.19l-15.71 -1.63z"/>
  <path id="17" class="fil2" d="M2424.35 358.76c9.25,0 16.48,3.33 21.69,9.96 4.62,5.9 6.94,13.58 6.94,23.04 0,10.92 -2.98,19.44 -8.9,25.52 -5.12,5.21 -11.73,7.83 -19.85,7.83 -9.31,0 -16.56,-3.33 -21.73,-9.96 -4.6,-5.87 -6.88,-13.54 -6.88,-23.04 0,-10.88 2.98,-19.4 8.96,-25.52 5.15,-5.21 11.73,-7.83 19.77,-7.83zm0 10.48c-9.23,0 -13.85,7.54 -13.85,22.63 0,15.17 4.58,22.75 13.73,22.75 9.25,0 13.87,-7.58 13.87,-22.75 0,-15.1 -4.58,-22.63 -13.75,-22.63z"/>
  <path id="18" class="fil2" d="M2501.1 358.76l-0.96 13.63c-8.08,0 -14.06,5.35 -17.98,16.06l0 35.04 -14.31 0 0 -63.35 13.63 0 0 15.58c4.1,-11.31 10.63,-16.96 19.61,-16.96z"/>
  <path id="19" class="fil2" d="M2527.52 360.14l0 63.35 -14.54 0 0 -63.35 14.54 0zm-7.04 -26.19l14.88 0 -13.48 17.65 -8.9 0 7.5 -17.65z"/>
  <path id="20" class="fil2" d="M2544.27 376.11c3.27,-11.63 12,-17.46 26.19,-17.46 16.38,0 24.56,7 24.56,21.02l0 25.12c0,6.14 0.35,12.37 1.02,18.71l-13.35 0c-0.42,-2.36 -0.77,-5.13 -1.08,-8.31 -4.54,6.54 -11.19,9.81 -19.94,9.81 -6.27,0 -11.19,-1.92 -14.77,-5.75 -3.15,-3.39 -4.73,-7.73 -4.73,-13.08 0,-11.27 6.9,-18.25 20.67,-20.9 5.11,-0.98 11.15,-1.58 18.1,-1.81l0 -3.6c0,-4.19 -1,-7.17 -2.98,-8.94 -1.73,-1.5 -4.4,-2.23 -8,-2.23 -3.31,0 -6.06,1.06 -8.23,3.19 -2,1.96 -3.29,4.58 -3.88,7.89l-13.58 -3.66zm36.67 16.31c-4.85,0.11 -9.69,0.73 -14.54,1.86 -6.9,1.65 -10.37,5.23 -10.37,10.77 0,6.38 3.39,9.58 10.14,9.58 6.17,0 11.1,-3.48 14.77,-10.42l0 -11.79z"/>
  <path id="21" class="fil2" d="M2658.97 374.89l-13.75 3.94c-1.58,-6.77 -5.33,-10.15 -11.25,-10.15 -3.23,0 -5.77,0.73 -7.62,2.23 -1.54,1.19 -2.31,2.71 -2.31,4.54 0,2.67 0.85,4.67 2.54,5.98 1.58,1.21 4.48,2.37 8.73,3.5l5.29 1.41c7.67,2.02 12.94,4.63 15.83,7.83 2.56,2.83 3.85,6.63 3.85,11.44 0,6.31 -2.42,11.19 -7.27,14.65 -4.48,3.23 -10.6,4.85 -18.37,4.85 -13.79,0 -22.6,-5.27 -26.42,-15.81l13.52 -4.73c2.02,7.08 6.44,10.61 13.23,10.61 7.71,0 11.56,-2.71 11.56,-8.13 0,-2.71 -0.9,-4.67 -2.71,-5.92 -1.54,-1.02 -4.71,-2.21 -9.52,-3.6l-5.29 -1.48c-7.33,-1.94 -12.35,-4.5 -15.04,-7.65 -2.38,-2.79 -3.56,-6.65 -3.56,-11.62 0,-5.65 2.31,-10.15 6.92,-13.46 4.25,-3.04 9.87,-4.56 16.85,-4.56 12.88,0 21.15,5.38 24.79,16.13z"/>
  <path id="22" class="fil2" d="M2759.81 332.34l0 91.15 -13.96 0 0 -8.77c-4.1,6.92 -10.02,10.38 -17.75,10.38 -7.6,0 -13.62,-3.27 -18.1,-9.81 -4.08,-6.04 -6.13,-13.96 -6.13,-23.75 0,-11.12 2.67,-19.64 8,-25.52 4.29,-4.77 9.69,-7.15 16.23,-7.15 7.58,0 13.35,3.35 17.29,10.04l0 -36.58 14.42 0zm-14.42 48.73c-2.92,-7.25 -7.31,-10.87 -13.12,-10.87 -4.21,0 -7.54,1.96 -9.98,5.9 -2.36,3.79 -3.54,9.02 -3.54,15.65 0,7.77 1.52,13.6 4.56,17.46 2.4,3.04 5.5,4.56 9.29,4.56 5.48,0 9.75,-3.52 12.79,-10.58l0 -22.13z"/>
  <path id="23" class="fil2" d="M2831.72 394.99l-42.83 0c0.08,6.6 1.61,11.67 4.63,15.19 2.73,3.19 6.5,4.79 11.31,4.79 6.81,0 11.27,-4.02 13.37,-12.02l13.17 3.83c-3.98,12.21 -12.87,18.33 -26.69,18.33 -10.11,0 -17.79,-3.27 -23.06,-9.81 -4.62,-5.69 -6.92,-13.4 -6.92,-23.08 0,-10.98 3,-19.5 9.02,-25.58 5.14,-5.25 11.71,-7.89 19.71,-7.89 8.94,0 16,3.25 21.19,9.75 4.73,5.9 7.1,13.73 7.1,23.5l0 2.98zm-14.19 -9.58c-0.71,-11.08 -5.34,-16.63 -13.87,-16.63 -4.61,0 -8.21,1.69 -10.77,5.08 -2.17,2.9 -3.42,6.75 -3.77,11.56l28.4 0z"/>
  <path id="24" class="fil2" d="M2929.79 378.97l-14.08 3.21c-1.35,-8.56 -5.1,-12.83 -11.21,-12.83 -9.46,0 -14.19,7.5 -14.19,22.52 0,15.1 4.73,22.63 14.19,22.63 6.69,0 10.71,-4.42 12.12,-13.29l13.52 3.71c-1.65,7 -4.98,12.21 -9.98,15.67 -4.31,3 -9.65,4.5 -16,4.5 -9.62,0 -16.98,-3.31 -22.08,-9.9 -4.44,-5.79 -6.65,-13.48 -6.65,-23.1 0,-11 2.94,-19.52 8.79,-25.52 5.08,-5.21 11.73,-7.83 19.94,-7.83 7.29,0 13.21,1.98 17.75,5.96 3.94,3.46 6.58,8.21 7.88,14.25z"/>
  <path id="25" class="fil2" d="M2995.56 360.14l0 63.35 -14.1 0 0 -10.96c-2.44,4.13 -5.62,7.33 -9.52,9.6 -3.46,1.98 -7.13,2.98 -11.04,2.98 -5.75,0 -10.29,-1.77 -13.63,-5.29 -3.12,-3.35 -4.67,-7.83 -4.67,-13.42l0 -46.25 14.87 0 0 42.1c0,6.94 2.98,10.42 8.9,10.42 2.86,0 5.75,-1.17 8.67,-3.5 2.48,-2 4.48,-4.46 5.98,-7.39l0 -41.64 14.54 0z"/>
  <path id="26" class="fil2" d="M3047.5 358.76l-0.96 13.63c-8.08,0 -14.06,5.35 -17.98,16.06l0 35.04 -14.31 0 0 -63.35 13.63 0 0 15.58c4.1,-11.31 10.63,-16.96 19.61,-16.96z"/>
  <path id="27" class="fil2" d="M3105.2 374.89l-13.75 3.94c-1.58,-6.77 -5.33,-10.15 -11.25,-10.15 -3.23,0 -5.77,0.73 -7.62,2.23 -1.54,1.19 -2.31,2.71 -2.31,4.54 0,2.67 0.85,4.67 2.54,5.98 1.58,1.21 4.48,2.37 8.73,3.5l5.29 1.41c7.67,2.02 12.94,4.63 15.83,7.83 2.56,2.83 3.85,6.63 3.85,11.44 0,6.31 -2.42,11.19 -7.27,14.65 -4.48,3.23 -10.6,4.85 -18.37,4.85 -13.79,0 -22.6,-5.27 -26.42,-15.81l13.52 -4.73c2.02,7.08 6.44,10.61 13.23,10.61 7.71,0 11.56,-2.71 11.56,-8.13 0,-2.71 -0.9,-4.67 -2.71,-5.92 -1.54,-1.02 -4.71,-2.21 -9.52,-3.6l-5.29 -1.48c-7.33,-1.94 -12.35,-4.5 -15.04,-7.65 -2.38,-2.79 -3.56,-6.65 -3.56,-11.62 0,-5.65 2.31,-10.15 6.92,-13.46 4.25,-3.04 9.87,-4.56 16.85,-4.56 12.88,0 21.15,5.38 24.79,16.13z"/>
  <path id="28" class="fil2" d="M3145.93 358.76c9.25,0 16.48,3.33 21.69,9.96 4.62,5.9 6.94,13.58 6.94,23.04 0,10.92 -2.98,19.44 -8.9,25.52 -5.12,5.21 -11.73,7.83 -19.85,7.83 -9.31,0 -16.56,-3.33 -21.73,-9.96 -4.6,-5.87 -6.88,-13.54 -6.88,-23.04 0,-10.88 2.98,-19.4 8.96,-25.52 5.15,-5.21 11.73,-7.83 19.77,-7.83zm0 10.48c-9.23,0 -13.85,7.54 -13.85,22.63 0,15.17 4.58,22.75 13.73,22.75 9.25,0 13.87,-7.58 13.87,-22.75 0,-15.1 -4.58,-22.63 -13.75,-22.63z"/>
  <path id="29" class="fil2" d="M3235.12 374.89l-13.75 3.94c-1.58,-6.77 -5.33,-10.15 -11.25,-10.15 -3.23,0 -5.77,0.73 -7.62,2.23 -1.54,1.19 -2.31,2.71 -2.31,4.54 0,2.67 0.85,4.67 2.54,5.98 1.58,1.21 4.48,2.37 8.73,3.5l5.29 1.41c7.67,2.02 12.94,4.63 15.83,7.83 2.56,2.83 3.85,6.63 3.85,11.44 0,6.31 -2.42,11.19 -7.27,14.65 -4.48,3.23 -10.6,4.85 -18.37,4.85 -13.79,0 -22.6,-5.27 -26.42,-15.81l13.52 -4.73c2.02,7.08 6.44,10.61 13.23,10.61 7.71,0 11.56,-2.71 11.56,-8.13 0,-2.71 -0.9,-4.67 -2.71,-5.92 -1.54,-1.02 -4.71,-2.21 -9.52,-3.6l-5.29 -1.48c-7.33,-1.94 -12.35,-4.5 -15.04,-7.65 -2.38,-2.79 -3.56,-6.65 -3.56,-11.62 0,-5.65 2.31,-10.15 6.92,-13.46 4.25,-3.04 9.87,-4.56 16.85,-4.56 12.88,0 21.15,5.38 24.79,16.13z"/>
  <path id="30" class="fil2" d="M3335.97 332.34l0 91.15 -13.96 0 0 -8.77c-4.1,6.92 -10.02,10.38 -17.75,10.38 -7.6,0 -13.62,-3.27 -18.1,-9.81 -4.08,-6.04 -6.13,-13.96 -6.13,-23.75 0,-11.12 2.67,-19.64 8,-25.52 4.29,-4.77 9.69,-7.15 16.23,-7.15 7.58,0 13.35,3.35 17.29,10.04l0 -36.58 14.42 0zm-14.42 48.73c-2.92,-7.25 -7.31,-10.87 -13.12,-10.87 -4.21,0 -7.54,1.96 -9.98,5.9 -2.36,3.79 -3.54,9.02 -3.54,15.65 0,7.77 1.52,13.6 4.56,17.46 2.4,3.04 5.5,4.56 9.29,4.56 5.48,0 9.75,-3.52 12.79,-10.58l0 -22.13z"/>
  <path id="31" class="fil2" d="M3407.87 394.99l-42.83 0c0.08,6.6 1.61,11.67 4.63,15.19 2.73,3.19 6.5,4.79 11.31,4.79 6.81,0 11.27,-4.02 13.37,-12.02l13.17 3.83c-3.98,12.21 -12.87,18.33 -26.69,18.33 -10.11,0 -17.79,-3.27 -23.06,-9.81 -4.62,-5.69 -6.92,-13.4 -6.92,-23.08 0,-10.98 3,-19.5 9.02,-25.58 5.14,-5.25 11.71,-7.89 19.71,-7.89 8.94,0 16,3.25 21.19,9.75 4.73,5.9 7.1,13.73 7.1,23.5l0 2.98zm-14.19 -9.58c-0.71,-11.08 -5.34,-16.63 -13.87,-16.63 -4.61,0 -8.21,1.69 -10.77,5.08 -2.17,2.9 -3.42,6.75 -3.77,11.56l28.4 0z"/>
  <path id="32" class="fil2" d="M3505.95 378.97l-14.08 3.21c-1.35,-8.56 -5.1,-12.83 -11.21,-12.83 -9.46,0 -14.19,7.5 -14.19,22.52 0,15.1 4.73,22.63 14.19,22.63 6.69,0 10.71,-4.42 12.12,-13.29l13.52 3.71c-1.65,7 -4.98,12.21 -9.98,15.67 -4.31,3 -9.65,4.5 -16,4.5 -9.62,0 -16.98,-3.31 -22.08,-9.9 -4.44,-5.79 -6.65,-13.48 -6.65,-23.1 0,-11 2.94,-19.52 8.79,-25.52 5.08,-5.21 11.73,-7.83 19.94,-7.83 7.29,0 13.21,1.98 17.75,5.96 3.94,3.46 6.58,8.21 7.88,14.25z"/>
  <path id="33" class="fil2" d="M3543.99 358.76c9.25,0 16.48,3.33 21.69,9.96 4.62,5.9 6.94,13.58 6.94,23.04 0,10.92 -2.98,19.44 -8.9,25.52 -5.12,5.21 -11.73,7.83 -19.85,7.83 -9.31,0 -16.56,-3.33 -21.73,-9.96 -4.6,-5.87 -6.88,-13.54 -6.88,-23.04 0,-10.88 2.98,-19.4 8.96,-25.52 5.15,-5.21 11.73,-7.83 19.77,-7.83zm0 10.48c-9.23,0 -13.85,7.54 -13.85,22.63 0,15.17 4.58,22.75 13.73,22.75 9.25,0 13.87,-7.58 13.87,-22.75 0,-15.1 -4.58,-22.63 -13.75,-22.63z"/>
  <path id="34" class="fil2" d="M3638.03 378.97l-14.08 3.21c-1.35,-8.56 -5.1,-12.83 -11.21,-12.83 -9.46,0 -14.19,7.5 -14.19,22.52 0,15.1 4.73,22.63 14.19,22.63 6.69,0 10.71,-4.42 12.12,-13.29l13.52 3.71c-1.65,7 -4.98,12.21 -9.98,15.67 -4.31,3 -9.65,4.5 -16,4.5 -9.62,0 -16.98,-3.31 -22.08,-9.9 -4.44,-5.79 -6.65,-13.48 -6.65,-23.1 0,-11 2.94,-19.52 8.79,-25.52 5.08,-5.21 11.73,-7.83 19.94,-7.83 7.29,0 13.21,1.98 17.75,5.96 3.94,3.46 6.58,8.21 7.88,14.25z"/>
  <path id="35" class="fil2" d="M3665.58 360.14l0 63.35 -14.54 0 0 -63.35 14.54 0zm0.64 -26.19l0 14.87 -15.73 0 0 -14.87 15.73 0z"/>
  <path id="36" class="fil2" d="M3698.28 360.14l0 11.08c2.77,-4.12 6.08,-7.29 9.9,-9.48 3.5,-1.98 7.12,-2.98 10.88,-2.98 5.75,0 10.27,1.88 13.58,5.64 3,3.38 4.5,7.85 4.5,13.4l0 45.69 -14.87 0 0 -41.63c0,-7.1 -2.92,-10.65 -8.79,-10.65 -2.71,0 -5.48,1.1 -8.35,3.27 -2.44,1.92 -4.58,4.42 -6.42,7.5l0 41.52 -14.54 0 0 -63.35 14.1 0z"/>
  <path id="37" class="fil2" d="M3753.66 376.11c3.27,-11.63 12,-17.46 26.19,-17.46 16.38,0 24.56,7 24.56,21.02l0 25.12c0,6.14 0.35,12.37 1.02,18.71l-13.35 0c-0.42,-2.36 -0.77,-5.13 -1.08,-8.31 -4.54,6.54 -11.19,9.81 -19.94,9.81 -6.27,0 -11.19,-1.92 -14.77,-5.75 -3.15,-3.39 -4.73,-7.73 -4.73,-13.08 0,-11.27 6.9,-18.25 20.67,-20.9 5.11,-0.98 11.15,-1.58 18.1,-1.81l0 -3.6c0,-4.19 -1,-7.17 -2.98,-8.94 -1.73,-1.5 -4.4,-2.23 -8,-2.23 -3.31,0 -6.06,1.06 -8.23,3.19 -2,1.96 -3.29,4.58 -3.88,7.89l-13.58 -3.66zm36.67 16.31c-4.85,0.11 -9.69,0.73 -14.54,1.86 -6.9,1.65 -10.37,5.23 -10.37,10.77 0,6.38 3.39,9.58 10.14,9.58 6.17,0 11.1,-3.48 14.77,-10.42l0 -11.79z"/>
  <path id="38" class="fil2" d="M2247.52 930.24l27.1 0c10.1,0 17.58,2.27 22.42,6.81 4.13,3.87 6.19,9.25 6.19,16.15 0,7.81 -2.83,13.81 -8.5,17.96 -5.11,3.71 -12.04,5.58 -20.79,5.58l-18.83 0 0 37.61 -7.6 0 0 -84.12zm7.6 6.35l0 33.92 18.37 0c14.54,0 21.81,-5.73 21.81,-17.19 0,-11.15 -7.04,-16.73 -21.12,-16.73l-19.06 0z"/>
  <path id="39" class="fil2" d="M2318.41 970.05c3.44,-9.85 11.02,-14.77 22.69,-14.77 13.63,0 20.46,6.38 20.46,19.15l0 20.33c0,7.69 0.46,14.23 1.4,19.6l-6.71 0c-0.48,-2.21 -0.9,-5.6 -1.29,-10.15 -5.08,7.69 -12.02,11.54 -20.85,11.54 -6.11,0 -10.79,-1.77 -14.02,-5.29 -2.75,-2.96 -4.12,-6.79 -4.12,-11.44 0,-10.42 6.5,-16.73 19.48,-18.9 5.08,-0.87 11.46,-1.5 19.15,-1.86l0 -3.1c0,-5.46 -1.19,-9.27 -3.6,-11.4 -2.1,-1.87 -5.44,-2.81 -10.04,-2.81 -8.25,0 -13.56,3.85 -15.88,11.54l-6.69 -2.42zm36.21 13.5c-5.77,0.12 -11.65,0.73 -17.63,1.85 -9.23,1.88 -13.85,6.31 -13.85,13.27 0,3.75 1.19,6.63 3.6,8.67 2.15,1.83 5.02,2.75 8.62,2.75 7.75,0 14.17,-4.15 19.27,-12.48l0 -14.06z"/>
  <path id="40" class="fil2" d="M2422.64 968.9l-6.92 2.42c-2.19,-6.92 -6.88,-10.38 -14.1,-10.38 -4.35,0 -7.71,0.96 -10.08,2.86 -2.04,1.65 -3.04,3.77 -3.04,6.35 0,3.23 1,5.61 3.04,7.13 1.81,1.38 5.02,2.6 9.64,3.6l4.61 1.02c7.13,1.65 12.04,3.83 14.71,6.54 2.44,2.44 3.65,5.88 3.65,10.37 0,5.29 -2.04,9.46 -6.13,12.56 -3.86,2.92 -9.13,4.38 -15.79,4.38 -11.6,0 -19.19,-4.65 -22.75,-13.96l6.92 -2.65c2.56,7.31 7.87,10.96 15.94,10.96 5.35,0 9.29,-1.21 11.83,-3.65 1.96,-1.87 2.94,-4.19 2.94,-6.96 0,-3.58 -1.02,-6.13 -3.04,-7.71 -1.92,-1.46 -5.5,-2.77 -10.71,-3.92l-4.61 -1.08c-6.81,-1.54 -11.46,-3.71 -13.98,-6.54 -2.06,-2.29 -3.1,-5.44 -3.1,-9.46 0,-4.85 1.9,-8.67 5.69,-11.48 3.54,-2.67 8.33,-4 14.37,-4 10.4,0 17.36,4.54 20.9,13.62z"/>
  <path id="41" class="fil2" d="M2453.18 936.01l0 20.65 14.54 0 0 5.77 -14.54 0 0 37.46c0,6.79 2.86,10.19 8.56,10.19 2.48,0 4.98,-0.27 7.5,-0.81l-0.5 5.85c-2.4,0.4 -5.14,0.61 -8.17,0.61 -9.69,0 -14.54,-4.81 -14.54,-14.4l0 -38.9 -9.92 0 0 -5.77 9.92 0 0 -19.02 7.15 -1.64z"/>
  <path id="42" class="fil2" d="M2482.14 970.05c3.44,-9.85 11.02,-14.77 22.69,-14.77 13.63,0 20.46,6.38 20.46,19.15l0 20.33c0,7.69 0.46,14.23 1.4,19.6l-6.71 0c-0.48,-2.21 -0.9,-5.6 -1.29,-10.15 -5.08,7.69 -12.02,11.54 -20.85,11.54 -6.11,0 -10.79,-1.77 -14.02,-5.29 -2.75,-2.96 -4.12,-6.79 -4.12,-11.44 0,-10.42 6.5,-16.73 19.48,-18.9 5.08,-0.87 11.46,-1.5 19.15,-1.86l0 -3.1c0,-5.46 -1.19,-9.27 -3.6,-11.4 -2.1,-1.87 -5.44,-2.81 -10.04,-2.81 -8.25,0 -13.56,3.85 -15.88,11.54l-6.69 -2.42zm36.21 13.5c-5.77,0.12 -11.65,0.73 -17.63,1.85 -9.23,1.88 -13.85,6.31 -13.85,13.27 0,3.75 1.19,6.63 3.6,8.67 2.15,1.83 5.02,2.75 8.62,2.75 7.75,0 14.17,-4.15 19.27,-12.48l0 -14.06z"/>
  <path id="43" class="fil2" d="M2586.37 968.9l-6.92 2.42c-2.19,-6.92 -6.88,-10.38 -14.1,-10.38 -4.35,0 -7.71,0.96 -10.08,2.86 -2.04,1.65 -3.04,3.77 -3.04,6.35 0,3.23 1,5.61 3.04,7.13 1.81,1.38 5.02,2.6 9.64,3.6l4.61 1.02c7.13,1.65 12.04,3.83 14.71,6.54 2.44,2.44 3.65,5.88 3.65,10.37 0,5.29 -2.04,9.46 -6.13,12.56 -3.86,2.92 -9.13,4.38 -15.79,4.38 -11.6,0 -19.19,-4.65 -22.75,-13.96l6.92 -2.65c2.56,7.31 7.87,10.96 15.94,10.96 5.35,0 9.29,-1.21 11.83,-3.65 1.96,-1.87 2.94,-4.19 2.94,-6.96 0,-3.58 -1.02,-6.13 -3.04,-7.71 -1.92,-1.46 -5.5,-2.77 -10.71,-3.92l-4.61 -1.08c-6.81,-1.54 -11.46,-3.71 -13.98,-6.54 -2.06,-2.29 -3.1,-5.44 -3.1,-9.46 0,-4.85 1.9,-8.67 5.69,-11.48 3.54,-2.67 8.33,-4 14.37,-4 10.4,0 17.36,4.54 20.9,13.62z"/>
  <polygon id="44" class="fil2" points="2648.85,930.24 2648.85,1014.36 2641.25,1014.36 2641.25,930.24 "/>
  <path id="45" class="fil2" d="M2683.5 936.01l0 20.65 14.54 0 0 5.77 -14.54 0 0 37.46c0,6.79 2.86,10.19 8.56,10.19 2.48,0 4.98,-0.27 7.5,-0.81l-0.5 5.85c-2.4,0.4 -5.14,0.61 -8.17,0.61 -9.69,0 -14.54,-4.81 -14.54,-14.4l0 -38.9 -9.92 0 0 -5.77 9.92 0 0 -19.02 7.15 -1.64z"/>
  <path id="46" class="fil2" d="M2712.47 970.05c3.44,-9.85 11.02,-14.77 22.69,-14.77 13.63,0 20.46,6.38 20.46,19.15l0 20.33c0,7.69 0.46,14.23 1.4,19.6l-6.71 0c-0.48,-2.21 -0.9,-5.6 -1.29,-10.15 -5.08,7.69 -12.02,11.54 -20.85,11.54 -6.11,0 -10.79,-1.77 -14.02,-5.29 -2.75,-2.96 -4.12,-6.79 -4.12,-11.44 0,-10.42 6.5,-16.73 19.48,-18.9 5.08,-0.87 11.46,-1.5 19.15,-1.86l0 -3.1c0,-5.46 -1.19,-9.27 -3.6,-11.4 -2.1,-1.87 -5.44,-2.81 -10.04,-2.81 -8.25,0 -13.56,3.85 -15.88,11.54l-6.69 -2.42zm36.21 13.5c-5.77,0.12 -11.65,0.73 -17.63,1.85 -9.23,1.88 -13.85,6.31 -13.85,13.27 0,3.75 1.19,6.63 3.6,8.67 2.15,1.83 5.02,2.75 8.62,2.75 7.75,0 14.17,-4.15 19.27,-12.48l0 -14.06z"/>
  <polygon id="47" class="fil2" points="2785.66,928.74 2785.66,1014.36 2778.5,1014.36 2778.5,928.74 "/>
  <path id="48" class="fil2" d="M2815.91 956.67l0 57.69 -7.15 0 0 -57.69 7.15 0zm1.69 -23.19l0 10.73 -10.6 0 0 -10.73 10.6 0z"/>
  <path id="49" class="fil2" d="M2837.37 970.05c3.44,-9.85 11.02,-14.77 22.69,-14.77 13.63,0 20.46,6.38 20.46,19.15l0 20.33c0,7.69 0.46,14.23 1.4,19.6l-6.71 0c-0.48,-2.21 -0.9,-5.6 -1.29,-10.15 -5.08,7.69 -12.02,11.54 -20.85,11.54 -6.11,0 -10.79,-1.77 -14.02,-5.29 -2.75,-2.96 -4.12,-6.79 -4.12,-11.44 0,-10.42 6.5,-16.73 19.48,-18.9 5.08,-0.87 11.46,-1.5 19.15,-1.86l0 -3.1c0,-5.46 -1.19,-9.27 -3.6,-11.4 -2.1,-1.87 -5.44,-2.81 -10.04,-2.81 -8.25,0 -13.56,3.85 -15.88,11.54l-6.69 -2.42zm36.21 13.5c-5.77,0.12 -11.65,0.73 -17.63,1.85 -9.23,1.88 -13.85,6.31 -13.85,13.27 0,3.75 1.19,6.63 3.6,8.67 2.15,1.83 5.02,2.75 8.62,2.75 7.75,0 14.17,-4.15 19.27,-12.48l0 -14.06z"/>
  <path id="50" class="fil2" d="M2910.33 956.67l0 10.73c6.46,-8.08 13.48,-12.12 21.08,-12.12 5.21,0 9.29,1.63 12.21,4.9 2.63,2.89 3.94,6.67 3.94,11.37l0 42.81 -7.25 0 0 -39.83c0,-8.52 -3.58,-12.79 -10.71,-12.79 -6.69,0 -13.04,4 -19.04,12l0 40.61 -7.15 0 0 -57.69 6.92 0z"/>
  <path id="51" class="fil2" d="M2968.7 970.05c3.44,-9.85 11.02,-14.77 22.69,-14.77 13.63,0 20.46,6.38 20.46,19.15l0 20.33c0,7.69 0.46,14.23 1.4,19.6l-6.71 0c-0.48,-2.21 -0.9,-5.6 -1.29,-10.15 -5.08,7.69 -12.02,11.54 -20.85,11.54 -6.11,0 -10.79,-1.77 -14.02,-5.29 -2.75,-2.96 -4.12,-6.79 -4.12,-11.44 0,-10.42 6.5,-16.73 19.48,-18.9 5.08,-0.87 11.46,-1.5 19.15,-1.86l0 -3.1c0,-5.46 -1.19,-9.27 -3.6,-11.4 -2.1,-1.87 -5.44,-2.81 -10.04,-2.81 -8.25,0 -13.56,3.85 -15.88,11.54l-6.69 -2.42zm36.21 13.5c-5.77,0.12 -11.65,0.73 -17.63,1.85 -9.23,1.88 -13.85,6.31 -13.85,13.27 0,3.75 1.19,6.63 3.6,8.67 2.15,1.83 5.02,2.75 8.62,2.75 7.75,0 14.17,-4.15 19.27,-12.48l0 -14.06z"/>
  <path id="52" class="fil2" d="M3072.93 968.9l-6.92 2.42c-2.19,-6.92 -6.88,-10.38 -14.1,-10.38 -4.35,0 -7.71,0.96 -10.08,2.86 -2.04,1.65 -3.04,3.77 -3.04,6.35 0,3.23 1,5.61 3.04,7.13 1.81,1.38 5.02,2.6 9.64,3.6l4.61 1.02c7.13,1.65 12.04,3.83 14.71,6.54 2.44,2.44 3.65,5.88 3.65,10.37 0,5.29 -2.04,9.46 -6.13,12.56 -3.86,2.92 -9.13,4.38 -15.79,4.38 -11.6,0 -19.19,-4.65 -22.75,-13.96l6.92 -2.65c2.56,7.31 7.87,10.96 15.94,10.96 5.35,0 9.29,-1.21 11.83,-3.65 1.96,-1.87 2.94,-4.19 2.94,-6.96 0,-3.58 -1.02,-6.13 -3.04,-7.71 -1.92,-1.46 -5.5,-2.77 -10.71,-3.92l-4.61 -1.08c-6.81,-1.54 -11.46,-3.71 -13.98,-6.54 -2.06,-2.29 -3.1,-5.44 -3.1,-9.46 0,-4.85 1.9,-8.67 5.69,-11.48 3.54,-2.67 8.33,-4 14.37,-4 10.4,0 17.36,4.54 20.9,13.62z"/>
  <path id="53" class="fil2" d="M2306.73 803.55l-7.5 2.31c-3.23,-12.69 -10.6,-19.04 -22.08,-19.04 -8.39,0 -14.98,3.62 -19.83,10.87 -4.48,6.62 -6.71,15.33 -6.71,26.13 0,12.37 2.87,21.92 8.62,28.67 4.77,5.6 10.75,8.4 17.92,8.4 12.09,0 19.71,-6.46 22.87,-19.38l7.38 2.77c-4.81,15.46 -14.92,23.19 -30.36,23.19 -10.71,0 -19.27,-4.33 -25.69,-12.96 -5.87,-7.85 -8.79,-18.02 -8.79,-30.52 0,-14.4 3.77,-25.65 11.33,-33.73 6.23,-6.67 13.94,-10.02 23.15,-10.02 7.96,0 14.61,2.35 19.94,7.04 4.58,4.02 7.83,9.44 9.75,16.27z"/>
  <path id="54" class="fil2" d="M2345.62 806.78c7.69,0 13.81,3.04 18.37,9.12 4.06,5.44 6.08,12.4 6.08,20.88 0,9.85 -2.62,17.58 -7.83,23.19 -4.44,4.85 -10.02,7.27 -16.73,7.27 -7.83,0 -13.98,-3.08 -18.48,-9.23 -3.98,-5.4 -5.98,-12.37 -5.98,-20.89 0,-9.85 2.6,-17.56 7.79,-23.13 4.42,-4.81 10.02,-7.21 16.79,-7.21zm0 5.88c-5.71,0 -10.1,2.4 -13.13,7.19 -2.71,4.23 -4.06,9.92 -4.06,17.04 0,8.25 1.73,14.54 5.19,18.88 3,3.71 6.96,5.58 11.89,5.58 5.67,0 10.04,-2.42 13.11,-7.25 2.71,-4.27 4.06,-10.02 4.06,-17.21 0,-8.13 -1.73,-14.35 -5.17,-18.67 -3,-3.71 -6.98,-5.56 -11.89,-5.56z"/>
  <path id="55" class="fil2" d="M2431.7 823.28l-7.04 2.08c-2.08,-8.46 -6.96,-12.69 -14.65,-12.69 -5.67,0 -10.04,2.4 -13.13,7.19 -2.69,4.27 -4.06,9.96 -4.06,17.04 0,8.25 1.77,14.54 5.31,18.88 3,3.71 6.96,5.58 11.88,5.58 8.12,0 13.21,-4.31 15.27,-12.92l6.86 2.31c-3.6,11 -10.98,16.5 -22.13,16.5 -7.96,0 -14.17,-3.06 -18.65,-9.17 -3.94,-5.37 -5.9,-12.35 -5.9,-20.94 0,-9.85 2.56,-17.56 7.71,-23.13 4.44,-4.81 10.04,-7.21 16.85,-7.21 5.67,0 10.42,1.58 14.25,4.73 3.5,2.81 5.98,6.73 7.44,11.77z"/>
  <path id="56" class="fil2" d="M2456.21 808.17l0 57.69 -7.15 0 0 -57.69 7.15 0zm1.69 -23.19l0 10.73 -10.6 0 0 -10.73 10.6 0z"/>
  <path id="57" class="fil2" d="M2486.23 808.17l0 10.73c6.46,-8.08 13.48,-12.12 21.08,-12.12 5.21,0 9.29,1.63 12.21,4.9 2.63,2.89 3.94,6.67 3.94,11.37l0 42.81 -7.25 0 0 -39.83c0,-8.52 -3.58,-12.79 -10.71,-12.79 -6.69,0 -13.04,4 -19.04,12l0 40.61 -7.15 0 0 -57.69 6.92 0z"/>
  <path id="58" class="fil2" d="M2544.6 821.55c3.44,-9.85 11.02,-14.77 22.69,-14.77 13.63,0 20.46,6.38 20.46,19.15l0 20.33c0,7.69 0.46,14.23 1.4,19.6l-6.71 0c-0.48,-2.21 -0.9,-5.6 -1.29,-10.15 -5.08,7.69 -12.02,11.54 -20.85,11.54 -6.11,0 -10.79,-1.77 -14.02,-5.29 -2.75,-2.96 -4.12,-6.79 -4.12,-11.44 0,-10.42 6.5,-16.73 19.48,-18.9 5.08,-0.87 11.46,-1.5 19.15,-1.86l0 -3.1c0,-5.46 -1.19,-9.27 -3.6,-11.4 -2.1,-1.87 -5.44,-2.81 -10.04,-2.81 -8.25,0 -13.56,3.85 -15.88,11.54l-6.69 -2.42zm36.21 13.5c-5.77,0.12 -11.65,0.73 -17.63,1.85 -9.23,1.88 -13.85,6.31 -13.85,13.27 0,3.75 1.19,6.63 3.6,8.67 2.15,1.83 5.02,2.75 8.62,2.75 7.75,0 14.17,-4.15 19.27,-12.48l0 -14.06z"/>
  <path id="59" class="fil2" d="M2665.12 781.74l0 63.77c0,7.81 -2.44,13.65 -7.33,17.58 -3.73,2.92 -8.33,4.39 -13.81,4.39 -1.5,0 -4.08,-0.17 -7.71,-0.5l-0.46 -6.42c2.52,0.38 5.14,0.58 7.83,0.58 4.29,0 7.71,-1.52 10.27,-4.56 2.48,-2.94 3.71,-6.96 3.71,-12.06l0 -62.77 7.5 0z"/>
  <path id="60" class="fil2" d="M2688.04 821.55c3.44,-9.85 11.02,-14.77 22.69,-14.77 13.63,0 20.46,6.38 20.46,19.15l0 20.33c0,7.69 0.46,14.23 1.4,19.6l-6.71 0c-0.48,-2.21 -0.9,-5.6 -1.29,-10.15 -5.08,7.69 -12.02,11.54 -20.85,11.54 -6.11,0 -10.79,-1.77 -14.02,-5.29 -2.75,-2.96 -4.12,-6.79 -4.12,-11.44 0,-10.42 6.5,-16.73 19.48,-18.9 5.08,-0.87 11.46,-1.5 19.15,-1.86l0 -3.1c0,-5.46 -1.19,-9.27 -3.6,-11.4 -2.1,-1.87 -5.44,-2.81 -10.04,-2.81 -8.25,0 -13.56,3.85 -15.88,11.54l-6.69 -2.42zm36.21 13.5c-5.77,0.12 -11.65,0.73 -17.63,1.85 -9.23,1.88 -13.85,6.31 -13.85,13.27 0,3.75 1.19,6.63 3.6,8.67 2.15,1.83 5.02,2.75 8.62,2.75 7.75,0 14.17,-4.15 19.27,-12.48l0 -14.06z"/>
  <path id="61" class="fil2" d="M2761 808.17l0 9.23c4.54,-7.08 10.46,-10.61 17.75,-10.61 7.25,0 12.98,2.98 17.17,8.94 3.81,5.4 5.69,12.42 5.69,21.06 0,9.92 -2.56,17.69 -7.65,23.37 -4.25,4.73 -9.5,7.1 -15.79,7.1 -7.17,0 -12.81,-3.5 -16.94,-10.5l0 30 -7.15 0 0 -78.58 6.92 0zm0.23 16.44l0 25.33c4.31,7.46 9.64,11.19 15.94,11.19 5.37,0 9.62,-2.37 12.73,-7.1 2.89,-4.31 4.35,-10.04 4.35,-17.15 0,-8.12 -1.73,-14.35 -5.19,-18.69 -2.89,-3.6 -6.63,-5.4 -11.21,-5.4 -6.85,0 -12.38,3.94 -16.62,11.83z"/>
  <path id="62" class="fil2" d="M2841.85 806.78c7.69,0 13.81,3.04 18.37,9.12 4.06,5.44 6.08,12.4 6.08,20.88 0,9.85 -2.62,17.58 -7.83,23.19 -4.44,4.85 -10.02,7.27 -16.73,7.27 -7.83,0 -13.98,-3.08 -18.48,-9.23 -3.98,-5.4 -5.98,-12.37 -5.98,-20.89 0,-9.85 2.6,-17.56 7.79,-23.13 4.42,-4.81 10.02,-7.21 16.79,-7.21zm0 5.88c-5.71,0 -10.1,2.4 -13.13,7.19 -2.71,4.23 -4.06,9.92 -4.06,17.04 0,8.25 1.73,14.54 5.19,18.88 3,3.71 6.96,5.58 11.89,5.58 5.67,0 10.04,-2.42 13.11,-7.25 2.71,-4.27 4.06,-10.02 4.06,-17.21 0,-8.13 -1.73,-14.35 -5.17,-18.67 -3,-3.71 -6.98,-5.56 -11.89,-5.56z"/>
  <path id="63" class="fil2" d="M2892.66 808.17l0 10.73c6.46,-8.08 13.48,-12.12 21.08,-12.12 5.21,0 9.29,1.63 12.21,4.9 2.63,2.89 3.94,6.67 3.94,11.37l0 42.81 -7.25 0 0 -39.83c0,-8.52 -3.58,-12.79 -10.71,-12.79 -6.69,0 -13.04,4 -19.04,12l0 40.61 -7.15 0 0 -57.69 6.92 0z"/>
  <path id="64" class="fil2" d="M2997.83 837.59l-41.87 0c0,8.06 1.96,14.25 5.87,18.6 3.27,3.6 7.44,5.4 12.52,5.4 8.29,0 13.73,-4.12 16.33,-12.35l6.71 2.54c-3.98,10.31 -11.71,15.46 -23.15,15.46 -8.08,0 -14.44,-3.06 -19.12,-9.17 -4.12,-5.4 -6.19,-12.38 -6.19,-20.94 0,-9.77 2.65,-17.48 7.94,-23.13 4.48,-4.81 10.06,-7.21 16.73,-7.21 7.63,0 13.69,2.94 18.21,8.85 4.02,5.25 6.02,11.96 6.02,20.1l0 1.87zm-7.15 -5.42c-0.52,-6.67 -2.48,-11.73 -5.87,-15.17 -2.89,-2.96 -6.58,-4.44 -11.1,-4.44 -5.17,0 -9.39,2 -12.62,6.02 -2.85,3.48 -4.48,8.02 -4.9,13.6l34.48 0z"/>
  <path id="65" class="fil2" d="M3055.26 820.4l-6.92 2.42c-2.19,-6.92 -6.88,-10.38 -14.1,-10.38 -4.35,0 -7.71,0.96 -10.08,2.86 -2.04,1.65 -3.04,3.77 -3.04,6.35 0,3.23 1,5.61 3.04,7.13 1.81,1.38 5.02,2.6 9.64,3.6l4.61 1.02c7.13,1.65 12.04,3.83 14.71,6.54 2.44,2.44 3.65,5.88 3.65,10.37 0,5.29 -2.04,9.46 -6.13,12.56 -3.86,2.92 -9.13,4.38 -15.79,4.38 -11.6,0 -19.19,-4.65 -22.75,-13.96l6.92 -2.65c2.56,7.31 7.87,10.96 15.94,10.96 5.35,0 9.29,-1.21 11.83,-3.65 1.96,-1.87 2.94,-4.19 2.94,-6.96 0,-3.58 -1.02,-6.13 -3.04,-7.71 -1.92,-1.46 -5.5,-2.77 -10.71,-3.92l-4.61 -1.08c-6.81,-1.54 -11.46,-3.71 -13.98,-6.54 -2.06,-2.29 -3.1,-5.44 -3.1,-9.46 0,-4.85 1.9,-8.67 5.69,-11.48 3.54,-2.67 8.33,-4 14.37,-4 10.4,0 17.36,4.54 20.9,13.62z"/>
  <path id="66" class="fil2" d="M3074.14 821.55c3.44,-9.85 11.02,-14.77 22.69,-14.77 13.63,0 20.46,6.38 20.46,19.15l0 20.33c0,7.69 0.46,14.23 1.4,19.6l-6.71 0c-0.48,-2.21 -0.9,-5.6 -1.29,-10.15 -5.08,7.69 -12.02,11.54 -20.85,11.54 -6.11,0 -10.79,-1.77 -14.02,-5.29 -2.75,-2.96 -4.12,-6.79 -4.12,-11.44 0,-10.42 6.5,-16.73 19.48,-18.9 5.08,-0.87 11.46,-1.5 19.15,-1.86l0 -3.1c0,-5.46 -1.19,-9.27 -3.6,-11.4 -2.1,-1.87 -5.44,-2.81 -10.04,-2.81 -8.25,0 -13.56,3.85 -15.88,11.54l-6.69 -2.42zm36.21 13.5c-5.77,0.12 -11.65,0.73 -17.63,1.85 -9.23,1.88 -13.85,6.31 -13.85,13.27 0,3.75 1.19,6.63 3.6,8.67 2.15,1.83 5.02,2.75 8.62,2.75 7.75,0 14.17,-4.15 19.27,-12.48l0 -14.06z"/>
 </g>
</svg>
