<?xml version="1.0" encoding="UTF-8"?>
<!DOCTYPE svg PUBLIC "-//W3C//DTD SVG 1.1//EN" "http://www.w3.org/Graphics/SVG/1.1/DTD/svg11.dtd">
<!-- Creator: CorelDRAW 2019 (64-Bit) -->
<svg xmlns="http://www.w3.org/2000/svg" xml:space="preserve" width="2.9778in" height="1.72727in" version="1.1" style="shape-rendering:geometricPrecision; text-rendering:geometricPrecision; image-rendering:optimizeQuality; fill-rule:evenodd; clip-rule:evenodd"
viewBox="0 0 597.49 346.57"
 xmlns:xlink="http://www.w3.org/1999/xlink">
 <defs>
  <style type="text/css">
   <![CDATA[
    .fil0 {fill:#333333}
    .fil1 {fill:#960428}
    .fil3 {fill:white}
    .fil2 {fill:white;fill-rule:nonzero}
   ]]>
  </style>
 </defs>
 <g id="Capa_x0020_1">
  <metadata id="CorelCorpID_0Corel-Layer"/>
  <path class="fil0" d="M63.78 0l469.91 0c35.08,0 63.78,28.7 63.78,63.78l0 219.02c0,35.08 -28.7,63.78 -63.78,63.78l-469.91 0c-35.08,0 -63.78,-28.7 -63.78,-63.78l0 -219.02c0,-35.08 28.7,-63.78 63.78,-63.78zm-21.4 86.11l12.27 0c1.97,0 3.57,1.6 3.57,3.57l0 167.21c0,1.97 -1.6,3.57 -3.57,3.57l-12.27 0c-1.97,0 -3.57,-1.6 -3.57,-3.57l0 -167.21c0,-1.97 1.6,-3.57 3.57,-3.57z"/>
  <path class="fil1" d="M157.81 0l375.64 0c35.23,0 64.04,28.7 64.04,63.78l0 219.02c0,35.08 -28.83,63.78 -64.04,63.78l-375.64 0c-35.23,0 -64.04,-28.7 -64.04,-63.78l0 -219.02c0,-35.08 28.83,-63.78 64.04,-63.78z"/>
  <path class="fil2" d="M265.2 78.54c0.11,1.88 0.54,3.44 1.34,4.61 1.49,2.21 4.13,3.31 7.92,3.31 1.69,0 3.25,-0.24 4.63,-0.74 2.71,-0.93 4.05,-2.62 4.05,-5.04 0,-1.82 -0.56,-3.12 -1.69,-3.9 -1.15,-0.76 -2.96,-1.43 -5.41,-1.97l-4.52 -1.02c-2.96,-0.67 -5.04,-1.41 -6.28,-2.21 -2.12,-1.41 -3.18,-3.48 -3.18,-6.25 0,-3.01 1.04,-5.45 3.12,-7.38 2.08,-1.93 5,-2.88 8.81,-2.88 3.51,0 6.47,0.84 8.92,2.53 2.44,1.69 3.66,4.39 3.66,8.09l-4.24 0c-0.22,-1.8 -0.71,-3.16 -1.45,-4.11 -1.36,-1.75 -3.72,-2.62 -7.01,-2.62 -2.66,0 -4.59,0.56 -5.76,1.69 -1.17,1.13 -1.75,2.42 -1.75,3.9 0,1.65 0.69,2.84 2.06,3.59 0.89,0.5 2.92,1.1 6.06,1.82l4.67 1.06c2.25,0.52 4,1.23 5.24,2.12 2.12,1.56 3.18,3.83 3.18,6.8 0,3.7 -1.34,6.34 -4.02,7.92 -2.68,1.6 -5.82,2.38 -9.37,2.38 -4.16,0 -7.4,-1.06 -9.74,-3.18 -2.34,-2.12 -3.51,-4.96 -3.44,-8.57l4.24 0 -0.02 0.04z"/>
  <path id="_1" class="fil2" d="M295.87 82.84c0,1.17 0.43,2.1 1.3,2.79 0.86,0.69 1.88,1.02 3.07,1.02 1.43,0 2.83,-0.32 4.18,-1 2.27,-1.1 3.4,-2.92 3.4,-5.43l0 -3.29c-0.5,0.32 -1.15,0.58 -1.93,0.8 -0.78,0.22 -1.56,0.37 -2.32,0.45l-2.47 0.32c-1.49,0.2 -2.6,0.52 -3.33,0.93 -1.26,0.71 -1.88,1.84 -1.88,3.4l-0.02 0zm9.91 -8.27c0.93,-0.13 1.58,-0.52 1.88,-1.19 0.17,-0.37 0.28,-0.89 0.28,-1.56 0,-1.38 -0.5,-2.4 -1.49,-3.03 -1,-0.63 -2.4,-0.95 -4.26,-0.95 -2.14,0 -3.64,0.58 -4.54,1.73 -0.5,0.63 -0.82,1.58 -0.97,2.84l-3.83 0c0.09,-2.99 1.06,-5.09 2.92,-6.25 1.86,-1.17 4.05,-1.75 6.51,-1.75 2.86,0 5.19,0.54 6.97,1.65 1.78,1.1 2.66,2.79 2.66,5.09l0 14.02c0,0.43 0.09,0.76 0.26,1.02 0.17,0.26 0.54,0.39 1.1,0.39 0.2,0 0.39,-0.02 0.61,-0.04 0.24,-0.02 0.48,-0.07 0.74,-0.11l0 3.03c-0.63,0.17 -1.13,0.3 -1.45,0.35 -0.32,0.04 -0.78,0.07 -1.36,0.07 -1.41,0 -2.44,-0.5 -3.07,-1.49 -0.32,-0.52 -0.56,-1.28 -0.71,-2.25 -0.82,1.1 -2.03,2.03 -3.59,2.84 -1.56,0.8 -3.29,1.21 -5.17,1.21 -2.25,0 -4.09,-0.69 -5.52,-2.06 -1.43,-1.36 -2.14,-3.09 -2.14,-5.15 0,-2.25 0.71,-4 2.12,-5.26 1.41,-1.23 3.25,-2.01 5.54,-2.29l6.51 -0.82 0.02 -0z"/>
  <path id="_2" class="fil2" d="M318.29 55.81l3.98 0 0 12.1c0.91,-1.17 1.97,-2.06 3.2,-2.66 1.26,-0.61 2.6,-0.93 4.05,-0.93 3.03,0 5.47,1.04 7.38,3.12 1.88,2.08 2.81,5.15 2.81,9.22 0,3.85 -0.93,7.03 -2.79,9.59 -1.86,2.55 -4.44,3.83 -7.75,3.83 -1.84,0 -3.4,-0.45 -4.67,-1.34 -0.76,-0.54 -1.58,-1.38 -2.44,-2.55l0 3.12 -3.77 0 0 -33.48 0 -0zm10.62 30.65c2.21,0 3.85,-0.86 4.96,-2.64 1.1,-1.75 1.65,-4.07 1.65,-6.95 0,-2.55 -0.54,-4.67 -1.65,-6.36 -1.1,-1.69 -2.71,-2.53 -4.85,-2.53 -1.86,0 -3.48,0.69 -4.89,2.08 -1.41,1.36 -2.1,3.64 -2.1,6.82 0,2.29 0.28,4.16 0.86,5.56 1.08,2.68 3.09,4.02 6.02,4.02l0 0z"/>
  <path id="_3" class="fil2" d="M354.15 86.68c2.71,0 4.57,-1.02 5.58,-3.07 1.02,-2.06 1.51,-4.33 1.51,-6.84 0,-2.27 -0.37,-4.11 -1.1,-5.54 -1.15,-2.25 -3.14,-3.38 -5.95,-3.38 -2.51,0 -4.33,0.95 -5.45,2.88 -1.15,1.9 -1.71,4.22 -1.71,6.9 0,2.6 0.56,4.76 1.71,6.47 1.13,1.73 2.94,2.6 5.41,2.6l0 -0.02zm0.15 -22.4c3.14,0 5.78,1.04 7.97,3.14 2.16,2.08 3.25,5.17 3.25,9.22 0,3.92 -0.95,7.16 -2.86,9.72 -1.93,2.55 -4.87,3.83 -8.9,3.83 -3.35,0 -5.99,-1.13 -7.96,-3.4 -1.97,-2.27 -2.96,-5.3 -2.96,-9.11 0,-4.09 1.04,-7.34 3.12,-9.76 2.08,-2.42 4.87,-3.64 8.35,-3.64l0 -0z"/>
  <path id="_4" class="fil2" d="M370.49 64.97l3.9 0 0 4.2c0.32,-0.82 1.1,-1.82 2.34,-2.99 1.23,-1.17 2.68,-1.75 4.31,-1.75 0.09,0 0.2,0 0.39,0.02 0.17,0.02 0.5,0.04 0.93,0.09l0 4.31c-0.24,-0.04 -0.45,-0.09 -0.67,-0.09 -0.19,-0.02 -0.43,-0.02 -0.67,-0.02 -2.06,0 -3.64,0.65 -4.74,1.99 -1.1,1.32 -1.67,2.86 -1.67,4.57l0 14 -4.09 0 0 -24.33 -0.02 0z"/>
  <path id="_5" class="fil2" d="M396 64.43c1.73,0 3.4,0.41 5.02,1.21 1.62,0.8 2.86,1.86 3.7,3.14 0.82,1.23 1.36,2.66 1.65,4.31 0.24,1.13 0.37,2.9 0.37,5.37l-17.83 0c0.09,2.47 0.65,4.44 1.75,5.93 1.1,1.49 2.77,2.23 5.06,2.23 2.14,0 3.83,-0.71 5.13,-2.12 0.71,-0.82 1.23,-1.78 1.54,-2.84l4.02 0c-0.11,0.89 -0.45,1.88 -1.06,2.99 -0.61,1.1 -1.28,1.99 -2.01,2.68 -1.23,1.21 -2.79,2.03 -4.61,2.44 -1,0.26 -2.1,0.37 -3.33,0.37 -3.03,0 -5.58,-1.1 -7.7,-3.31 -2.1,-2.21 -3.16,-5.28 -3.16,-9.26 0,-3.92 1.06,-7.08 3.18,-9.52 2.12,-2.44 4.89,-3.66 8.31,-3.66l-0.02 0.04zm6.51 10.78c-0.17,-1.77 -0.54,-3.2 -1.15,-4.24 -1.13,-1.97 -2.99,-2.96 -5.6,-2.96 -1.88,0 -3.44,0.67 -4.72,2.03 -1.28,1.36 -1.95,3.07 -2.03,5.17l13.53 0 -0.02 0z"/>
  <path id="_6" class="fil2" d="M414.18 81.68c0.13,1.36 0.45,2.4 1.02,3.14 1.04,1.32 2.81,1.97 5.37,1.97 1.51,0 2.86,-0.32 4,-1 1.15,-0.65 1.73,-1.67 1.73,-3.05 0,-1.04 -0.45,-1.84 -1.38,-2.38 -0.58,-0.32 -1.75,-0.71 -3.51,-1.17l-3.25 -0.82c-2.08,-0.52 -3.61,-1.1 -4.59,-1.73 -1.75,-1.1 -2.64,-2.64 -2.64,-4.59 0,-2.29 0.82,-4.16 2.49,-5.58 1.67,-1.43 3.9,-2.14 6.69,-2.14 3.66,0 6.3,1.08 7.92,3.23 1.02,1.36 1.51,2.83 1.47,4.41l-3.85 0c-0.09,-0.93 -0.41,-1.78 -0.97,-2.53 -0.93,-1.06 -2.58,-1.62 -4.89,-1.62 -1.54,0 -2.71,0.3 -3.51,0.89 -0.8,0.58 -1.19,1.36 -1.19,2.34 0,1.06 0.52,1.93 1.58,2.55 0.61,0.37 1.49,0.71 2.68,1l2.71 0.65c2.94,0.71 4.91,1.41 5.91,2.08 1.6,1.04 2.38,2.68 2.38,4.93 0,2.16 -0.82,4.02 -2.47,5.6 -1.64,1.58 -4.13,2.36 -7.51,2.36 -3.61,0 -6.19,-0.82 -7.7,-2.47 -1.51,-1.65 -2.32,-3.68 -2.42,-6.1l3.94 0 -0 0.04z"/>
  <g id="_2367947720208">
   <g>
    <path class="fil3" d="M450.33 129.1c1.13,2.88 1.69,5.67 1.78,8.35l-47.18 23.5 2.53 5.06 43.93 -21.88c-4.09,15.99 -24.15,27.96 -38,34.84 -13.14,6.54 -28.68,2.9 -37.68,-7.92 -1.69,-1.71 -3.12,-3.68 -4.22,-5.89 -1.1,-2.21 -1.8,-4.52 -2.14,-6.9 -3.23,-13.7 3.25,-28.29 16.38,-34.84 13.83,-6.88 35.47,-15.69 50.71,-9.33l-43.93 21.88 2.53 5.06 47.18 -23.5c2.08,1.69 3.98,3.83 5.6,6.45l-49.11 24.46 2.53 5.06 49.11 -24.46 -0.02 0.05z"/>
    <path class="fil3" d="M405.11 146.98l1.17 2.34c1.71,3.44 -1.41,8.49 -6.99,11.26l-145.06 72.25c-5.57,2.77 -11.48,2.23 -13.19,-1.21l-1.17 -2.34c-1.71,-3.44 1.41,-8.49 6.99,-11.26l145.06 -72.25c5.57,-2.77 11.48,-2.23 13.19,1.21z"/>
   </g>
   <path class="fil3" d="M446 229.62c-11.47,19.85 -57.87,-9.28 -71.7,-17.27 -30.52,-17.62 -53.13,-36.4 -53,-43.67l-73.52 -42.44c-3.31,-1.93 -4.46,-6.19 -2.55,-9.52l1.3 -2.25c1.93,-3.31 6.19,-4.46 9.52,-2.55l187.4 108.19c3.31,1.93 4.46,6.19 2.55,9.52l0 0z"/>
  </g>
  <polygon class="fil2" points="260.5,257.19 284.85,257.19 284.85,261.28 264.92,261.28 264.92,271.41 283.34,271.41 283.34,275.26 264.92,275.26 264.92,286.58 285.18,286.58 285.18,290.56 260.5,290.56 "/>
  <polygon id="_1_0" class="fil2" points="288.25,266.22 293.55,266.22 299.14,274.79 304.81,266.22 309.76,266.35 301.58,278.1 310.13,290.56 304.91,290.56 298.85,281.43 293.01,290.56 287.82,290.56 296.39,278.1 "/>
  <path id="_2_1" class="fil2" d="M323.51 287.92c2.7,0 4.57,-1.02 5.58,-3.07 1.02,-2.06 1.51,-4.33 1.51,-6.84 0,-2.27 -0.37,-4.11 -1.1,-5.54 -1.15,-2.25 -3.14,-3.38 -5.95,-3.38 -2.51,0 -4.33,0.95 -5.45,2.88 -1.15,1.9 -1.71,4.22 -1.71,6.9 0,2.6 0.56,4.76 1.71,6.47 1.13,1.73 2.94,2.6 5.41,2.6l0 -0.02zm0.15 -22.4c3.14,0 5.78,1.04 7.96,3.14 2.16,2.08 3.25,5.17 3.25,9.22 0,3.92 -0.95,7.16 -2.86,9.72 -1.93,2.55 -4.87,3.83 -8.89,3.83 -3.35,0 -5.99,-1.13 -7.97,-3.4 -1.97,-2.27 -2.96,-5.3 -2.96,-9.11 0,-4.09 1.04,-7.34 3.12,-9.76 2.08,-2.42 4.87,-3.64 8.35,-3.64l0 -0zm4.76 -9.09l-6.08 6.56 -3.14 0 4.16 -6.56 5.04 0 0.02 0z"/>
  <path id="_3_2" class="fil2" d="M340.54 259.44l4.13 0 0 6.8 3.9 0 0 3.33 -3.9 0 0 15.89c0,0.84 0.3,1.41 0.86,1.69 0.32,0.17 0.84,0.26 1.58,0.26 0.2,0 0.41,0 0.63,-0.02 0.22,0 0.5,-0.02 0.8,-0.07l0 3.23c-0.45,0.13 -0.95,0.24 -1.47,0.3 -0.5,0.07 -1.06,0.09 -1.65,0.09 -1.9,0 -3.2,-0.5 -3.9,-1.47 -0.69,-0.97 -1.02,-2.25 -1.02,-3.81l0 -16.1 -3.29 0 0 -3.33 3.29 0 0 -6.8 0.02 0.02z"/>
  <path id="_4_3" class="fil2" d="M352.66 266.35l4.16 0 0 24.22 -4.16 0 0 -24.22zm0 -9.15l4.16 0 0 4.63 -4.16 0 0 -4.63z"/>
  <path id="_5_4" class="fil2" d="M372.37 265.53c2.73,0 4.98,0.67 6.69,2.01 1.71,1.34 2.75,3.64 3.09,6.88l-3.96 0c-0.24,-1.49 -0.8,-2.75 -1.67,-3.74 -0.87,-1 -2.25,-1.49 -4.16,-1.49 -2.6,0 -4.46,1.28 -5.58,3.81 -0.74,1.65 -1.1,3.7 -1.1,6.1 0,2.44 0.52,4.5 1.56,6.17 1.02,1.67 2.64,2.51 4.87,2.51 1.69,0 3.05,-0.52 4.02,-1.56 1,-1.04 1.67,-2.47 2.06,-4.26l3.96 0c-0.45,3.23 -1.58,5.58 -3.4,7.08 -1.82,1.49 -4.13,2.25 -6.97,2.25 -3.18,0 -5.71,-1.17 -7.62,-3.48 -1.88,-2.32 -2.84,-5.24 -2.84,-8.7 0,-4.26 1.04,-7.6 3.12,-9.98 2.08,-2.38 4.72,-3.57 7.94,-3.57l-0.02 -0.03z"/>
  <path id="_6_5" class="fil2" d="M395.92 287.92c2.71,0 4.57,-1.02 5.58,-3.07 1.02,-2.06 1.51,-4.33 1.51,-6.84 0,-2.27 -0.37,-4.11 -1.1,-5.54 -1.15,-2.25 -3.14,-3.38 -5.95,-3.38 -2.51,0 -4.33,0.95 -5.45,2.88 -1.15,1.9 -1.71,4.22 -1.71,6.9 0,2.6 0.56,4.76 1.71,6.47 1.13,1.73 2.94,2.6 5.41,2.6l0 -0.02zm0.15 -22.4c3.14,0 5.78,1.04 7.97,3.14 2.16,2.08 3.25,5.17 3.25,9.22 0,3.92 -0.95,7.16 -2.86,9.72 -1.93,2.55 -4.87,3.83 -8.9,3.83 -3.35,0 -5.99,-1.13 -7.97,-3.4 -1.97,-2.27 -2.96,-5.3 -2.96,-9.11 0,-4.09 1.04,-7.34 3.12,-9.76 2.08,-2.42 4.87,-3.64 8.35,-3.64l0 -0z"/>
  <path id="_7" class="fil2" d="M414.55 282.92c0.13,1.36 0.45,2.4 1.02,3.14 1.04,1.32 2.81,1.97 5.37,1.97 1.51,0 2.86,-0.32 4,-1 1.15,-0.65 1.73,-1.67 1.73,-3.05 0,-1.04 -0.45,-1.84 -1.38,-2.38 -0.58,-0.32 -1.75,-0.71 -3.51,-1.17l-3.25 -0.82c-2.08,-0.52 -3.61,-1.1 -4.59,-1.73 -1.75,-1.1 -2.64,-2.64 -2.64,-4.59 0,-2.29 0.82,-4.16 2.49,-5.58 1.67,-1.43 3.9,-2.14 6.69,-2.14 3.66,0 6.3,1.08 7.92,3.23 1.02,1.36 1.51,2.84 1.47,4.41l-3.85 0c-0.09,-0.93 -0.41,-1.77 -0.97,-2.53 -0.93,-1.06 -2.58,-1.62 -4.89,-1.62 -1.54,0 -2.71,0.3 -3.51,0.89 -0.8,0.58 -1.19,1.36 -1.19,2.34 0,1.06 0.52,1.93 1.58,2.55 0.61,0.37 1.49,0.71 2.68,1l2.71 0.65c2.94,0.71 4.91,1.41 5.91,2.08 1.6,1.04 2.38,2.68 2.38,4.93 0,2.16 -0.82,4.02 -2.47,5.6 -1.65,1.58 -4.13,2.36 -7.51,2.36 -3.61,0 -6.19,-0.82 -7.7,-2.47 -1.51,-1.65 -2.32,-3.68 -2.42,-6.1l3.94 0 -0 0.04z"/>
 </g>
</svg>
